<mxfile host="app.diagrams.net" modified="2024-07-17T10:50:37.362Z" agent="Mozilla/5.0 (Windows NT 10.0; Win64; x64) AppleWebKit/537.36 (KHTML, like Gecko) Chrome/126.0.0.0 Safari/537.36" etag="sMeuG7PCjlIozceMD9Ul" version="24.7.0" type="device">
  <diagram name="Page-1" id="A_SZb-ImGWCaQz7NPsKa">
    <mxGraphModel dx="794" dy="412" grid="1" gridSize="10" guides="1" tooltips="1" connect="1" arrows="1" fold="1" page="1" pageScale="1" pageWidth="827" pageHeight="1169" math="0" shadow="0">
      <root>
        <mxCell id="0" />
        <mxCell id="1" parent="0" />
        <mxCell id="UnzaQId_ZmVLYQsVFyLs-1" value="" style="shape=image;html=1;verticalAlign=top;verticalLabelPosition=bottom;labelBackgroundColor=#ffffff;imageAspect=0;aspect=fixed;image=https://cdn4.iconfinder.com/data/icons/file-extension-names-vol-8/512/24-128.png" parent="1" vertex="1">
          <mxGeometry x="4" y="110" width="60" height="60" as="geometry" />
        </mxCell>
        <mxCell id="_mR5ltcmWF_qCgg_qJYI-26" value="" style="edgeStyle=orthogonalEdgeStyle;rounded=0;orthogonalLoop=1;jettySize=auto;html=1;" edge="1" parent="1" source="UnzaQId_ZmVLYQsVFyLs-2" target="UnzaQId_ZmVLYQsVFyLs-1">
          <mxGeometry relative="1" as="geometry" />
        </mxCell>
        <mxCell id="UnzaQId_ZmVLYQsVFyLs-2" value="Extraction" style="rounded=1;whiteSpace=wrap;html=1;direction=west;" parent="1" vertex="1">
          <mxGeometry x="110" y="69" width="60" height="160" as="geometry" />
        </mxCell>
        <mxCell id="_mR5ltcmWF_qCgg_qJYI-1" style="edgeStyle=orthogonalEdgeStyle;rounded=0;orthogonalLoop=1;jettySize=auto;html=1;exitX=1;exitY=0.5;exitDx=0;exitDy=0;" edge="1" parent="1">
          <mxGeometry relative="1" as="geometry">
            <mxPoint x="56" y="140" as="sourcePoint" />
            <mxPoint x="110" y="140" as="targetPoint" />
          </mxGeometry>
        </mxCell>
        <mxCell id="_mR5ltcmWF_qCgg_qJYI-10" style="edgeStyle=orthogonalEdgeStyle;rounded=0;orthogonalLoop=1;jettySize=auto;html=1;entryX=1;entryY=0.5;entryDx=0;entryDy=0;" edge="1" parent="1" source="_mR5ltcmWF_qCgg_qJYI-3" target="_mR5ltcmWF_qCgg_qJYI-4">
          <mxGeometry relative="1" as="geometry" />
        </mxCell>
        <mxCell id="_mR5ltcmWF_qCgg_qJYI-3" value="Extracted Text" style="whiteSpace=wrap;html=1;shape=mxgraph.basic.document" vertex="1" parent="1">
          <mxGeometry x="210" y="84" width="85" height="130" as="geometry" />
        </mxCell>
        <mxCell id="_mR5ltcmWF_qCgg_qJYI-4" value="Splitting" style="rounded=1;whiteSpace=wrap;html=1;direction=west;" vertex="1" parent="1">
          <mxGeometry x="340" y="69" width="60" height="160" as="geometry" />
        </mxCell>
        <mxCell id="_mR5ltcmWF_qCgg_qJYI-5" value="Chunk" style="whiteSpace=wrap;html=1;shape=mxgraph.basic.document" vertex="1" parent="1">
          <mxGeometry x="453" y="24" width="70" height="60" as="geometry" />
        </mxCell>
        <mxCell id="_mR5ltcmWF_qCgg_qJYI-6" value="Chunk" style="whiteSpace=wrap;html=1;shape=mxgraph.basic.document" vertex="1" parent="1">
          <mxGeometry x="453" y="111" width="70" height="60" as="geometry" />
        </mxCell>
        <mxCell id="_mR5ltcmWF_qCgg_qJYI-7" value="Chunk" style="whiteSpace=wrap;html=1;shape=mxgraph.basic.document" vertex="1" parent="1">
          <mxGeometry x="453" y="195" width="70" height="60" as="geometry" />
        </mxCell>
        <mxCell id="_mR5ltcmWF_qCgg_qJYI-8" value="Embeddings" style="rounded=1;whiteSpace=wrap;html=1;direction=west;" vertex="1" parent="1">
          <mxGeometry x="600" y="60" width="70" height="160" as="geometry" />
        </mxCell>
        <mxCell id="_mR5ltcmWF_qCgg_qJYI-9" style="edgeStyle=orthogonalEdgeStyle;rounded=0;orthogonalLoop=1;jettySize=auto;html=1;exitX=0;exitY=0.5;exitDx=0;exitDy=0;entryX=0;entryY=0.5;entryDx=0;entryDy=0;entryPerimeter=0;" edge="1" parent="1" source="UnzaQId_ZmVLYQsVFyLs-2" target="_mR5ltcmWF_qCgg_qJYI-3">
          <mxGeometry relative="1" as="geometry" />
        </mxCell>
        <mxCell id="_mR5ltcmWF_qCgg_qJYI-11" value="" style="endArrow=classic;html=1;rounded=0;" edge="1" parent="1">
          <mxGeometry width="50" height="50" relative="1" as="geometry">
            <mxPoint x="400" y="110" as="sourcePoint" />
            <mxPoint x="450" y="60" as="targetPoint" />
          </mxGeometry>
        </mxCell>
        <mxCell id="_mR5ltcmWF_qCgg_qJYI-12" value="" style="endArrow=classic;html=1;rounded=0;" edge="1" parent="1">
          <mxGeometry width="50" height="50" relative="1" as="geometry">
            <mxPoint x="400" y="180" as="sourcePoint" />
            <mxPoint x="453" y="205" as="targetPoint" />
          </mxGeometry>
        </mxCell>
        <mxCell id="_mR5ltcmWF_qCgg_qJYI-13" style="edgeStyle=orthogonalEdgeStyle;rounded=0;orthogonalLoop=1;jettySize=auto;html=1;entryX=0.043;entryY=0.633;entryDx=0;entryDy=0;entryPerimeter=0;" edge="1" parent="1" source="_mR5ltcmWF_qCgg_qJYI-4" target="_mR5ltcmWF_qCgg_qJYI-6">
          <mxGeometry relative="1" as="geometry" />
        </mxCell>
        <mxCell id="_mR5ltcmWF_qCgg_qJYI-14" value="" style="endArrow=none;html=1;rounded=0;" edge="1" parent="1">
          <mxGeometry width="50" height="50" relative="1" as="geometry">
            <mxPoint x="556" y="220" as="sourcePoint" />
            <mxPoint x="556" y="60" as="targetPoint" />
          </mxGeometry>
        </mxCell>
        <mxCell id="_mR5ltcmWF_qCgg_qJYI-15" style="edgeStyle=orthogonalEdgeStyle;rounded=0;orthogonalLoop=1;jettySize=auto;html=1;entryX=0.043;entryY=0.633;entryDx=0;entryDy=0;entryPerimeter=0;exitX=1.014;exitY=0.383;exitDx=0;exitDy=0;exitPerimeter=0;" edge="1" parent="1" source="_mR5ltcmWF_qCgg_qJYI-7">
          <mxGeometry relative="1" as="geometry">
            <mxPoint x="530" y="218" as="sourcePoint" />
            <mxPoint x="555" y="218" as="targetPoint" />
          </mxGeometry>
        </mxCell>
        <mxCell id="_mR5ltcmWF_qCgg_qJYI-16" style="rounded=0;orthogonalLoop=1;jettySize=auto;html=1;entryX=0.043;entryY=0.633;entryDx=0;entryDy=0;entryPerimeter=0;exitX=0.986;exitY=0.622;exitDx=0;exitDy=0;exitPerimeter=0;" edge="1" parent="1" source="_mR5ltcmWF_qCgg_qJYI-5">
          <mxGeometry relative="1" as="geometry">
            <mxPoint x="527" y="61" as="sourcePoint" />
            <mxPoint x="558" y="61" as="targetPoint" />
          </mxGeometry>
        </mxCell>
        <mxCell id="_mR5ltcmWF_qCgg_qJYI-17" style="edgeStyle=orthogonalEdgeStyle;rounded=0;orthogonalLoop=1;jettySize=auto;html=1;exitX=1.014;exitY=0.383;exitDx=0;exitDy=0;exitPerimeter=0;" edge="1" parent="1">
          <mxGeometry relative="1" as="geometry">
            <mxPoint x="523" y="139.5" as="sourcePoint" />
            <mxPoint x="560" y="140" as="targetPoint" />
          </mxGeometry>
        </mxCell>
        <mxCell id="_mR5ltcmWF_qCgg_qJYI-18" style="edgeStyle=orthogonalEdgeStyle;rounded=0;orthogonalLoop=1;jettySize=auto;html=1;" edge="1" parent="1">
          <mxGeometry relative="1" as="geometry">
            <mxPoint x="560" y="139.5" as="sourcePoint" />
            <mxPoint x="600" y="140" as="targetPoint" />
          </mxGeometry>
        </mxCell>
        <mxCell id="_mR5ltcmWF_qCgg_qJYI-19" value="&lt;div&gt;&lt;br&gt;&lt;/div&gt;&lt;div&gt;&lt;br&gt;&lt;/div&gt;Pinecone&lt;div&gt;Vector&lt;br&gt;&lt;div&gt;DB&lt;/div&gt;&lt;/div&gt;" style="strokeWidth=2;html=1;shape=mxgraph.flowchart.database;whiteSpace=wrap;" vertex="1" parent="1">
          <mxGeometry x="730" y="110" width="70" height="80" as="geometry" />
        </mxCell>
        <mxCell id="_mR5ltcmWF_qCgg_qJYI-20" style="edgeStyle=orthogonalEdgeStyle;rounded=0;orthogonalLoop=1;jettySize=auto;html=1;entryX=-0.01;entryY=0.383;entryDx=0;entryDy=0;entryPerimeter=0;" edge="1" parent="1" source="_mR5ltcmWF_qCgg_qJYI-8" target="_mR5ltcmWF_qCgg_qJYI-19">
          <mxGeometry relative="1" as="geometry" />
        </mxCell>
        <mxCell id="_mR5ltcmWF_qCgg_qJYI-21" value="" style="aspect=fixed;sketch=0;html=1;dashed=0;whitespace=wrap;verticalLabelPosition=bottom;verticalAlign=top;fillColor=#2875E2;strokeColor=#ffffff;points=[[0.005,0.63,0],[0.1,0.2,0],[0.9,0.2,0],[0.5,0,0],[0.995,0.63,0],[0.72,0.99,0],[0.5,1,0],[0.28,0.99,0]];shape=mxgraph.kubernetes.icon2;kubernetesLabel=1;prIcon=user" vertex="1" parent="1">
          <mxGeometry y="380" width="61" height="58.56" as="geometry" />
        </mxCell>
        <mxCell id="_mR5ltcmWF_qCgg_qJYI-22" value="Query" style="shape=callout;whiteSpace=wrap;html=1;perimeter=calloutPerimeter;" vertex="1" parent="1">
          <mxGeometry x="1" y="320" width="120" height="80" as="geometry" />
        </mxCell>
        <mxCell id="_mR5ltcmWF_qCgg_qJYI-23" style="edgeStyle=orthogonalEdgeStyle;rounded=0;orthogonalLoop=1;jettySize=auto;html=1;entryX=0.5;entryY=1;entryDx=0;entryDy=0;entryPerimeter=0;" edge="1" parent="1" source="_mR5ltcmWF_qCgg_qJYI-22" target="_mR5ltcmWF_qCgg_qJYI-19">
          <mxGeometry relative="1" as="geometry" />
        </mxCell>
        <mxCell id="_mR5ltcmWF_qCgg_qJYI-24" value="Search" style="edgeLabel;html=1;align=center;verticalAlign=middle;resizable=0;points=[];" vertex="1" connectable="0" parent="_mR5ltcmWF_qCgg_qJYI-23">
          <mxGeometry x="-0.0352" y="2" relative="1" as="geometry">
            <mxPoint as="offset" />
          </mxGeometry>
        </mxCell>
        <mxCell id="_mR5ltcmWF_qCgg_qJYI-31" style="edgeStyle=orthogonalEdgeStyle;rounded=0;orthogonalLoop=1;jettySize=auto;html=1;" edge="1" parent="1" source="_mR5ltcmWF_qCgg_qJYI-25">
          <mxGeometry relative="1" as="geometry">
            <mxPoint x="560" y="440" as="targetPoint" />
          </mxGeometry>
        </mxCell>
        <mxCell id="_mR5ltcmWF_qCgg_qJYI-25" value="Relevant&lt;div&gt;Chunks&lt;/div&gt;" style="html=1;verticalLabelPosition=bottom;align=center;labelBackgroundColor=#ffffff;verticalAlign=top;strokeWidth=2;strokeColor=#0080F0;shadow=0;dashed=0;shape=mxgraph.ios7.icons.documents;" vertex="1" parent="1">
          <mxGeometry x="760" y="410" width="50" height="60" as="geometry" />
        </mxCell>
        <mxCell id="_mR5ltcmWF_qCgg_qJYI-28" value="" style="endArrow=none;html=1;rounded=0;entryX=0.829;entryY=0.967;entryDx=0;entryDy=0;entryPerimeter=0;exitX=0.587;exitY=0.011;exitDx=0;exitDy=0;exitPerimeter=0;" edge="1" parent="1" source="_mR5ltcmWF_qCgg_qJYI-25" target="_mR5ltcmWF_qCgg_qJYI-19">
          <mxGeometry width="50" height="50" relative="1" as="geometry">
            <mxPoint x="760" y="280" as="sourcePoint" />
            <mxPoint x="810" y="230" as="targetPoint" />
          </mxGeometry>
        </mxCell>
        <mxCell id="_mR5ltcmWF_qCgg_qJYI-32" style="edgeStyle=orthogonalEdgeStyle;rounded=0;orthogonalLoop=1;jettySize=auto;html=1;" edge="1" parent="1" source="_mR5ltcmWF_qCgg_qJYI-29" target="_mR5ltcmWF_qCgg_qJYI-21">
          <mxGeometry relative="1" as="geometry" />
        </mxCell>
        <mxCell id="_mR5ltcmWF_qCgg_qJYI-33" value="Response" style="edgeLabel;html=1;align=center;verticalAlign=middle;resizable=0;points=[];" vertex="1" connectable="0" parent="_mR5ltcmWF_qCgg_qJYI-32">
          <mxGeometry x="0.2065" y="1" relative="1" as="geometry">
            <mxPoint as="offset" />
          </mxGeometry>
        </mxCell>
        <mxCell id="_mR5ltcmWF_qCgg_qJYI-29" value="" style="outlineConnect=0;dashed=0;verticalLabelPosition=bottom;verticalAlign=top;align=center;html=1;shape=mxgraph.aws3.machine_learning;fillColor=#2E73B8;gradientColor=none;" vertex="1" parent="1">
          <mxGeometry x="480" y="400" width="76.5" height="93" as="geometry" />
        </mxCell>
        <mxCell id="_mR5ltcmWF_qCgg_qJYI-30" value="llamma2 chat model" style="text;html=1;align=center;verticalAlign=middle;resizable=0;points=[];autosize=1;strokeColor=none;fillColor=none;" vertex="1" parent="1">
          <mxGeometry x="455" y="488" width="130" height="30" as="geometry" />
        </mxCell>
      </root>
    </mxGraphModel>
  </diagram>
</mxfile>
